<mxfile host="app.diagrams.net" modified="2023-09-01T02:49:32.343Z" agent="Mozilla/5.0 (Macintosh; Intel Mac OS X 10_15_7) AppleWebKit/537.36 (KHTML, like Gecko) Chrome/116.0.0.0 Safari/537.36" version="21.6.9" etag="5rA_0psBEfFTxUXDQGLW" type="github">
  <diagram name="第 1 页" id="TKd-qp34z9pGgto-7NaB">
    <mxGraphModel>
      <root>
        <mxCell id="0" />
        <mxCell id="1" parent="0" />
      </root>
    </mxGraphModel>
  </diagram>
</mxfile>
